<?xml version="1.0" encoding="utf-8"?><svg version="1.0" id="Layer_1" xmlns="http://www.w3.org/2000/svg" xmlns:xlink="http://www.w3.org/1999/xlink" x="0px" y="0px" viewBox="0 0 1920 1080" enable-background="new 0 0 1920 1080" xml:space="preserve"><polygon fill="#121312" stroke="#121312" points="1920,760 1920,683 1885,720 "/><polygon fill="#898C80" stroke="#898C80" points="1920,981 1920,882 1880,950 "/><polygon fill="#979EAA" stroke="#979EAA" points="1920,86 1920,0 1920,0 "/><polygon fill="#252B30" stroke="#252B30" points="1920,981 1920,1080 1920,1080 "/><polygon fill="#2B475B" stroke="#2B475B" points="1920,683 1920,583 1860,640 "/><polygon fill="#49535D" stroke="#49535D" points="1920,86 1920,0 1850,50 "/><polygon fill="#656B74" stroke="#656B74" points="1920,0 1920,0 1850,50 "/><polygon fill="#292C2C" stroke="#292C2C" points="1885,720 1920,683 1860,640 "/><polygon fill="#4F5D66" stroke="#4F5D66" points="1920,1080 1920,1080 1880,950 "/><polygon fill="#272D34" stroke="#272D34" points="1850,50 1920,0 1821,0 "/><polygon fill="#434235" stroke="#434235" points="1920,782 1920,760 1885,720 "/><polygon fill="#8D9E85" stroke="#8D9E85" points="1885,720 1860,640 1810,695 "/><polygon fill="#CBC8A6" stroke="#CBC8A6" points="1880,950 1920,882 1815,935 "/><polygon fill="#516974" stroke="#516974" points="1920,1080 1880,950 1821,1080 "/><polygon fill="#7999AC" stroke="#7999AC" points="1920,1080 1920,981 1821,1080 "/><polygon fill="#516974" stroke="#516974" points="1880,950 1920,1080 1821,1080 "/><polygon fill="#A9A36E" stroke="#A9A36E" points="1920,782 1885,720 1790,830 "/><polygon fill="#C8BC85" stroke="#C8BC85" points="1920,882 1920,782 1790,830 "/><polygon fill="#53492E" stroke="#53492E" points="1815,935 1920,882 1790,830 "/><polygon fill="#6C7D73" stroke="#6C7D73" points="1821,1080 1880,950 1815,935 "/><polygon fill="#97B2B4" stroke="#97B2B4" points="1920,981 1880,950 1821,1080 "/><polygon fill="#2B374A" stroke="#2B374A" points="1920,185 1920,86 1850,50 "/><polygon fill="#EFECA4" stroke="#EFECA4" points="1885,720 1810,695 1790,830 "/><polygon fill="#587783" stroke="#587783" points="1821,1080 1815,935 1795,1075 "/><polygon fill="#0B213F" stroke="#0B213F" points="1920,0 1920,583 1850,50 "/><polygon fill="#0B213F" stroke="#0B213F" points="1920,583 1920,0 1850,50 "/><polygon fill="#6F8B7D" stroke="#6F8B7D" points="1810,695 1860,640 1745,645 "/><polygon fill="#EFEBAA" stroke="#EFEBAA" points="1790,830 1810,695 1750,725 "/><polygon fill="#7D8C80" stroke="#7D8C80" points="1795,1075 1815,935 1755,955 "/><polygon fill="#C3AC63" stroke="#C3AC63" points="1790,830 1750,725 1725,790 "/><polygon fill="#6B7259" stroke="#6B7259" points="1750,725 1810,695 1745,645 "/><polygon fill="#6290A1" stroke="#6290A1" points="1795,1075 1755,955 1722,1080 "/><polygon fill="#24313E" stroke="#24313E" points="1850,50 1821,0 1722,0 "/><polygon fill="#144368" stroke="#144368" points="1860,640 1920,484 1745,645 "/><polygon fill="#6B5F34" stroke="#6B5F34" points="1815,935 1790,830 1755,955 "/><polygon fill="#061D36" stroke="#061D36" points="1920,583 1920,484 1860,640 "/><polygon fill="#778477" stroke="#778477" points="1722,1080 1755,955 1640,975 "/><polygon fill="#AFA878" stroke="#AFA878" points="1640,975 1755,955 1630,910 "/><polygon fill="#CCBC7A" stroke="#CCBC7A" points="1755,955 1790,830 1725,790 "/><polygon fill="#BCA75B" stroke="#BCA75B" points="1755,955 1725,790 1630,910 "/><polygon fill="#08365E" stroke="#08365E" points="1722,1080 1625,1070 1622,1080 "/><polygon fill="#36555E" stroke="#36555E" points="1722,1080 1640,975 1625,1070 "/><polygon fill="#A7A67E" stroke="#A7A67E" points="1750,725 1745,645 1600,730 "/><polygon fill="#EAE7B3" stroke="#EAE7B3" points="1725,790 1750,725 1600,730 "/><polygon fill="#F1EBC2" stroke="#F1EBC2" points="1725,790 1600,730 1585,760 "/><polygon fill="#286EA3" stroke="#286EA3" points="1821,1080 1795,1075 1722,1080 "/><polygon fill="#BFDCB7" stroke="#BFDCB7" points="1600,730 1745,645 1575,635 "/><polygon fill="#E3DEB7" stroke="#E3DEB7" points="1640,975 1630,910 1580,975 "/><polygon fill="#82927F" stroke="#82927F" points="1625,1070 1640,975 1580,975 "/><polygon fill="#FFFDDD" stroke="#FFFDDD" points="1630,910 1725,790 1585,760 "/><polygon fill="#357DA6" stroke="#357DA6" points="1575,635 1745,645 1535,525 "/><polygon fill="#073A68" stroke="#073A68" points="1622,1080 1625,1070 1523,1080 "/><polygon fill="#022B5C" stroke="#022B5C" points="1920,484 1920,384 1535,525 "/><polygon fill="#033F74" stroke="#033F74" points="1745,645 1920,484 1535,525 "/><polygon fill="#172634" stroke="#172634" points="1920,185 1850,50 1722,0 "/><polygon fill="#3F5967" stroke="#3F5967" points="1625,1070 1580,975 1523,1080 "/><polygon fill="#E3DEC5" stroke="#E3DEC5" points="1585,760 1500,790 1495,805 "/><polygon fill="#DACEA5" stroke="#DACEA5" points="1580,975 1630,910 1485,855 "/><polygon fill="#EAE1C9" stroke="#EAE1C9" points="1630,910 1495,805 1485,855 "/><polygon fill="#EAD7A3" stroke="#EAD7A3" points="1630,910 1585,760 1495,805 "/><polygon fill="#2E89C6" stroke="#2E89C6" points="1575,635 1535,525 1510,635 "/><polygon fill="#99BDAA" stroke="#99BDAA" points="1600,730 1575,635 1510,635 "/><polygon fill="#132F4E" stroke="#132F4E" points="1920,285 1920,185 1722,0 "/><polygon fill="#8F9373" stroke="#8F9373" points="1580,975 1485,855 1450,935 "/><polygon fill="#E0E0D5" stroke="#E0E0D5" points="1500,790 1585,760 1460,670 "/><polygon fill="#E2E0CE" stroke="#E2E0CE" points="1585,760 1600,730 1460,670 "/><polygon fill="#8FADA4" stroke="#8FADA4" points="1600,730 1510,635 1460,670 "/><polygon fill="#032C69" stroke="#032C69" points="1920,384 1920,285 1535,525 "/><polygon fill="#93AA9F" stroke="#93AA9F" points="1523,1080 1580,975 1450,935 "/><polygon fill="#021626" stroke="#021626" points="1920,285 1722,0 1622,0 "/><polygon fill="#023C7F" stroke="#023C7F" points="1535,525 1920,285 1410,330 "/><polygon fill="#ADEAEC" stroke="#ADEAEC" points="1500,790 1460,670 1405,690 "/><polygon fill="#043567" stroke="#043567" points="1920,285 1622,0 1410,330 "/><polygon fill="#1D3141" stroke="#1D3141" points="1523,1080 1450,935 1423,1080 "/><polygon fill="#052E5D" stroke="#052E5D" points="1622,0 1523,0 1410,330 "/><polygon fill="#044689" stroke="#044689" points="1410,330 1523,0 1380,280 "/><polygon fill="#3D87B5" stroke="#3D87B5" points="1405,690 1460,670 1360,675 "/><polygon fill="#044993" stroke="#044993" points="1535,525 1370,370 1365,490 "/><polygon fill="#015DB7" stroke="#015DB7" points="1510,635 1535,525 1365,490 "/><polygon fill="#1878C3" stroke="#1878C3" points="1460,670 1510,635 1365,490 "/><polygon fill="#004DA2" stroke="#004DA2" points="1535,525 1410,330 1370,370 "/><polygon fill="#EAEDEB" stroke="#EAEDEB" points="1495,805 1500,790 1405,690 "/><polygon fill="#0053A8" stroke="#0053A8" points="1410,330 1380,280 1370,370 "/><polygon fill="#033466" stroke="#033466" points="1523,0 1423,0 1380,280 "/><polygon fill="#3994DC" stroke="#3994DC" points="1423,1080 1450,935 1310,1005 "/><polygon fill="#0B5196" stroke="#0B5196" points="1324,1080 1423,1080 1310,1005 "/><polygon fill="#75B0BD" stroke="#75B0BD" points="1450,935 1485,855 1310,855 "/><polygon fill="#9DC7CC" stroke="#9DC7CC" points="1485,855 1495,805 1310,855 "/><polygon fill="#8EF2F8" stroke="#8EF2F8" points="1495,805 1405,690 1310,855 "/><polygon fill="#1B79D0" stroke="#1B79D0" points="1460,670 1365,490 1360,675 "/><polygon fill="#0852A0" stroke="#0852A0" points="1324,1080 1310,1005 1270,1020 "/><polygon fill="#2985C9" stroke="#2985C9" points="1450,935 1310,855 1310,1005 "/><polygon fill="#0052A5" stroke="#0052A5" points="1360,675 1365,490 1260,525 "/><polygon fill="#0162C2" stroke="#0162C2" points="1365,490 1280,495 1260,525 "/><polygon fill="#1E9EF0" stroke="#1E9EF0" points="1405,690 1360,675 1260,785 "/><polygon fill="#189DEB" stroke="#189DEB" points="1310,855 1405,690 1260,785 "/><polygon fill="#004F9B" stroke="#004F9B" points="1365,490 1370,370 1280,495 "/><polygon fill="#024D97" stroke="#024D97" points="1370,370 1380,280 1285,260 "/><polygon fill="#03498E" stroke="#03498E" points="1370,370 1285,260 1240,355 "/><polygon fill="#0178DF" stroke="#0178DF" points="1310,1005 1310,855 1235,950 "/><polygon fill="#0167CD" stroke="#0167CD" points="1270,1020 1310,1005 1235,950 "/><polygon fill="#003B74" stroke="#003B74" points="1380,280 1423,0 1324,0 "/><polygon fill="#014891" stroke="#014891" points="1324,1080 1270,1020 1224,1080 "/><polygon fill="#024D97" stroke="#024D97" points="1280,495 1370,370 1240,355 "/><polygon fill="#01478E" stroke="#01478E" points="1380,280 1324,0 1285,260 "/><polygon fill="#0162C0" stroke="#0162C0" points="1260,785 1360,675 1215,720 "/><polygon fill="#015BB8" stroke="#015BB8" points="1260,525 1280,495 1210,495 "/><polygon fill="#0163CF" stroke="#0163CF" points="1205,715 1215,720 1175,620 "/><polygon fill="#0063C7" stroke="#0063C7" points="1360,675 1260,525 1175,620 "/><polygon fill="#0278EF" stroke="#0278EF" points="1215,720 1360,675 1175,620 "/><polygon fill="#004389" stroke="#004389" points="1285,260 1324,0 1180,185 "/><polygon fill="#047CEE" stroke="#047CEE" points="1260,785 1215,720 1180,800 "/><polygon fill="#0458B2" stroke="#0458B2" points="1280,495 1240,355 1210,495 "/><polygon fill="#0356AB" stroke="#0356AB" points="1240,355 1285,260 1165,300 "/><polygon fill="#023B77" stroke="#023B77" points="1270,1020 1235,950 1165,995 "/><polygon fill="#04509F" stroke="#04509F" points="1165,1010 1270,1020 1165,995 "/><polygon fill="#07519F" stroke="#07519F" points="1224,1080 1270,1020 1165,1010 "/><polygon fill="#0257AB" stroke="#0257AB" points="1285,260 1180,185 1155,270 "/><polygon fill="#0156AA" stroke="#0156AA" points="1165,300 1285,260 1155,270 "/><polygon fill="#0067CC" stroke="#0067CC" points="1260,525 1210,495 1175,620 "/><polygon fill="#003264" stroke="#003264" points="1324,0 1224,0 1180,185 "/><polygon fill="#0074E8" stroke="#0074E8" points="1215,720 1205,715 1180,800 "/><polygon fill="#0285F0" stroke="#0285F0" points="1310,855 1260,785 1180,800 "/><polygon fill="#027FEC" stroke="#027FEC" points="1235,950 1310,855 1180,800 "/><polygon fill="#0255A8" stroke="#0255A8" points="1130,170 1180,185 1130,155 "/><polygon fill="#176AC1" stroke="#176AC1" points="1224,1080 1165,1010 1125,1080 "/><polygon fill="#014384" stroke="#014384" points="1180,185 1224,0 1130,155 "/><polygon fill="#0053A6" stroke="#0053A6" points="1240,355 1165,300 1105,345 "/><polygon fill="#05468D" stroke="#05468D" points="1130,170 1130,155 1095,165 "/><polygon fill="#0868CF" stroke="#0868CF" points="1165,995 1235,950 1100,955 "/><polygon fill="#0055A9" stroke="#0055A9" points="1155,270 1180,185 1130,170 "/><polygon fill="#0458AF" stroke="#0458AF" points="1130,170 1095,165 1090,185 "/><polygon fill="#013A76" stroke="#013A76" points="1130,155 1224,0 1125,0 "/><polygon fill="#026BDA" stroke="#026BDA" points="1235,950 1180,800 1080,870 "/><polygon fill="#0760C5" stroke="#0760C5" points="1100,955 1235,950 1080,870 "/><polygon fill="#0466CE" stroke="#0466CE" points="1175,620 1210,495 1080,525 "/><polygon fill="#034E98" stroke="#034E98" points="1155,270 1130,170 1090,185 "/><polygon fill="#025CB9" stroke="#025CB9" points="1210,495 1240,355 1105,345 "/><polygon fill="#0261C6" stroke="#0261C6" points="1210,495 1105,345 1070,445 "/><polygon fill="#0A52A5" stroke="#0A52A5" points="1165,1010 1165,995 1100,955 "/><polygon fill="#025DB4" stroke="#025DB4" points="1165,300 1155,270 1105,345 "/><polygon fill="#0363CB" stroke="#0363CB" points="1080,525 1210,495 1065,460 "/><polygon fill="#0261C6" stroke="#0261C6" points="1210,495 1070,445 1065,460 "/><polygon fill="#0D75E7" stroke="#0D75E7" points="1100,955 1080,870 1045,935 "/><polygon fill="#0B4C8D" stroke="#0B4C8D" points="1125,1080 1165,1010 1100,955 "/><polygon fill="#0061C3" stroke="#0061C3" points="1070,445 1105,345 1020,380 "/><polygon fill="#046DEB" stroke="#046DEB" points="1180,800 1205,715 1020,750 "/><polygon fill="#0354B7" stroke="#0354B7" points="1080,870 1180,800 1020,750 "/><polygon fill="#0558A5" stroke="#0558A5" points="1090,185 1095,165 1020,170 "/><polygon fill="#036DEC" stroke="#036DEC" points="1205,715 1175,620 1020,750 "/><polygon fill="#2375C7" stroke="#2375C7" points="1125,1080 1100,955 1025,1080 "/><polygon fill="#03468C" stroke="#03468C" points="1130,155 1125,0 1095,165 "/><polygon fill="#044584" stroke="#044584" points="1020,170 1095,165 1005,155 "/><polygon fill="#035AB2" stroke="#035AB2" points="1090,185 1020,170 990,255 "/><polygon fill="#0158B0" stroke="#0158B0" points="1105,345 1155,270 990,255 "/><polygon fill="#055AAC" stroke="#055AAC" points="1155,270 1090,185 990,255 "/><polygon fill="#0C70E1" stroke="#0C70E1" points="1045,935 1080,870 995,920 "/><polygon fill="#044181" stroke="#044181" points="1095,165 1125,0 1025,0 "/><polygon fill="#0062CA" stroke="#0062CA" points="1175,620 1080,525 975,605 "/><polygon fill="#11457D" stroke="#11457D" points="1100,955 1045,935 1025,1080 "/><polygon fill="#025EBA" stroke="#025EBA" points="1020,380 1105,345 990,255 "/><polygon fill="#00488C" stroke="#00488C" points="1095,165 1025,0 1005,155 "/><polygon fill="#0360CE" stroke="#0360CE" points="1020,750 1175,620 975,605 "/><polygon fill="#2F89E6" stroke="#2F89E6" points="1025,1080 1045,935 980,1055 "/><polygon fill="#035BB8" stroke="#035BB8" points="1065,460 1070,445 1020,380 "/><polygon fill="#016AD9" stroke="#016AD9" points="975,605 1080,525 955,550 "/><polygon fill="#0069D8" stroke="#0069D8" points="1080,870 1020,750 970,775 "/><polygon fill="#0362C5" stroke="#0362C5" points="1065,460 1020,380 945,455 "/><polygon fill="#0268D0" stroke="#0268D0" points="1080,525 1065,460 955,550 "/><polygon fill="#075BB5" stroke="#075BB5" points="990,255 1020,170 965,250 "/><polygon fill="#0269D7" stroke="#0269D7" points="1020,750 975,605 935,650 "/><polygon fill="#0166CB" stroke="#0166CB" points="970,775 1020,750 945,760 "/><polygon fill="#0468CE" stroke="#0468CE" points="955,550 1065,460 945,455 "/><polygon fill="#1868B8" stroke="#1868B8" points="1045,935 995,920 980,1055 "/><polygon fill="#026DDE" stroke="#026DDE" points="935,650 975,605 930,635 "/><polygon fill="#02458D" stroke="#02458D" points="1005,155 1025,0 940,115 "/><polygon fill="#0266CD" stroke="#0266CD" points="995,920 1080,870 970,775 "/><polygon fill="#025AAB" stroke="#025AAB" points="1020,170 1005,155 965,250 "/><polygon fill="#025CB9" stroke="#025CB9" points="1020,380 990,255 920,300 "/><polygon fill="#0364C4" stroke="#0364C4" points="990,255 965,250 920,300 "/><polygon fill="#295684" stroke="#295684" points="1025,1080 980,1055 926,1080 "/><polygon fill="#4082C3" stroke="#4082C3" points="980,1055 935,1070 926,1080 "/><polygon fill="#034185" stroke="#034185" points="945,760 1020,750 935,650 "/><polygon fill="#01549F" stroke="#01549F" points="995,920 970,775 945,905 "/><polygon fill="#043E81" stroke="#043E81" points="940,115 1025,0 926,0 "/><polygon fill="#015CBD" stroke="#015CBD" points="955,550 945,455 895,525 "/><polygon fill="#0465C3" stroke="#0465C3" points="920,300 965,250 890,230 "/><polygon fill="#065BB1" stroke="#065BB1" points="965,250 1005,155 890,230 "/><polygon fill="#024D98" stroke="#024D98" points="1005,155 940,115 890,230 "/><polygon fill="#036FDB" stroke="#036FDB" points="945,455 920,300 895,455 "/><polygon fill="#0268D0" stroke="#0268D0" points="895,525 945,455 895,455 "/><polygon fill="#035EC2" stroke="#035EC2" points="930,635 955,550 895,525 "/><polygon fill="#005CB8" stroke="#005CB8" points="945,760 935,650 905,750 "/><polygon fill="#0864CC" stroke="#0864CC" points="945,455 1020,380 920,300 "/><polygon fill="#0168D6" stroke="#0168D6" points="975,605 955,550 930,635 "/><polygon fill="#2B8DE5" stroke="#2B8DE5" points="980,1055 945,905 935,1070 "/><polygon fill="#0063C5" stroke="#0063C5" points="945,905 970,775 945,760 "/><polygon fill="#186CC6" stroke="#186CC6" points="980,1055 995,920 945,905 "/><polygon fill="#0271DE" stroke="#0271DE" points="930,635 895,525 840,615 "/><polygon fill="#0074EE" stroke="#0074EE" points="840,640 930,635 840,615 "/><polygon fill="#0064CB" stroke="#0064CB" points="935,650 930,635 840,640 "/><polygon fill="#3877B3" stroke="#3877B3" points="926,1080 935,1070 827,1080 "/><polygon fill="#022D61" stroke="#022D61" points="940,115 926,0 827,0 "/><polygon fill="#0270E4" stroke="#0270E4" points="905,750 935,650 840,640 "/><polygon fill="#013F83" stroke="#013F83" points="945,905 945,760 905,750 "/><polygon fill="#026EE3" stroke="#026EE3" points="905,750 840,640 790,675 "/><polygon fill="#0553A4" stroke="#0553A4" points="890,230 940,115 795,105 "/><polygon fill="#043E7F" stroke="#043E7F" points="940,115 827,0 795,105 "/><polygon fill="#006DD9" stroke="#006DD9" points="895,525 895,455 770,465 "/><polygon fill="#2674C5" stroke="#2674C5" points="935,1070 945,905 827,1080 "/><polygon fill="#045CB5" stroke="#045CB5" points="920,300 890,230 755,285 "/><polygon fill="#036BD7" stroke="#036BD7" points="840,640 840,615 790,675 "/><polygon fill="#0265CB" stroke="#0265CB" points="840,615 895,525 740,500 "/><polygon fill="#0267CC" stroke="#0267CC" points="895,525 770,465 740,500 "/><polygon fill="#076CD9" stroke="#076CD9" points="905,750 790,675 725,780 "/><polygon fill="#0564C5" stroke="#0564C5" points="895,455 920,300 755,285 "/><polygon fill="#0776F3" stroke="#0776F3" points="945,905 905,750 720,880 "/><polygon fill="#0A6DDB" stroke="#0A6DDB" points="905,750 725,780 720,880 "/><polygon fill="#023E81" stroke="#023E81" points="795,105 827,0 727,0 "/><polygon fill="#005BB5" stroke="#005BB5" points="770,465 895,455 755,285 "/><polygon fill="#1674DF" stroke="#1674DF" points="827,1080 945,905 720,880 "/><polygon fill="#0655A8" stroke="#0655A8" points="890,230 795,105 755,285 "/><polygon fill="#005CB3" stroke="#005CB3" points="755,285 795,105 695,210 "/><polygon fill="#0F7AED" stroke="#0F7AED" points="725,780 790,675 710,680 "/><polygon fill="#0064C5" stroke="#0064C5" points="740,500 770,465 690,425 "/><polygon fill="#0B72E0" stroke="#0B72E0" points="710,680 790,675 675,615 "/><polygon fill="#0575E9" stroke="#0575E9" points="790,675 840,615 675,615 "/><polygon fill="#025FBD" stroke="#025FBD" points="770,465 755,285 690,425 "/><polygon fill="#025EBC" stroke="#025EBC" points="755,285 695,210 670,250 "/><polygon fill="#0557A9" stroke="#0557A9" points="670,270 755,285 670,250 "/><polygon fill="#0077E8" stroke="#0077E8" points="840,615 740,500 675,615 "/><polygon fill="#176CCF" stroke="#176CCF" points="727,1080 827,1080 720,880 "/><polygon fill="#034D9B" stroke="#034D9B" points="695,210 795,105 655,185 "/><polygon fill="#016ED2" stroke="#016ED2" points="675,615 740,500 655,530 "/><polygon fill="#0269C7" stroke="#0269C7" points="675,615 655,530 630,575 "/><polygon fill="#064893" stroke="#064893" points="670,250 695,210 655,185 "/><polygon fill="#0263C1" stroke="#0263C1" points="740,500 690,425 655,530 "/><polygon fill="#0254A6" stroke="#0254A6" points="690,425 755,285 670,270 "/><polygon fill="#1465C8" stroke="#1465C8" points="727,1080 720,880 625,910 "/><polygon fill="#004184" stroke="#004184" points="795,105 727,0 655,185 "/><polygon fill="#063773" stroke="#063773" points="628,1080 727,1080 585,1010 "/><polygon fill="#1475E5" stroke="#1475E5" points="727,1080 625,910 585,1010 "/><polygon fill="#0072DB" stroke="#0072DB" points="630,575 655,530 600,570 "/><polygon fill="#0B4179" stroke="#0B4179" points="628,1080 585,1010 580,1020 "/><polygon fill="#146BCD" stroke="#146BCD" points="720,880 725,780 625,910 "/><polygon fill="#013973" stroke="#013973" points="655,185 727,0 628,0 "/><polygon fill="#2166BA" stroke="#2166BA" points="625,910 725,780 560,845 "/><polygon fill="#0658A8" stroke="#0658A8" points="628,1080 580,1020 528,1080 "/><polygon fill="#0051A3" stroke="#0051A3" points="670,270 670,250 520,240 "/><polygon fill="#024B97" stroke="#024B97" points="670,250 655,185 520,240 "/><polygon fill="#0770DC" stroke="#0770DC" points="675,615 630,575 600,570 "/><polygon fill="#438FD4" stroke="#438FD4" points="625,910 560,845 510,890 "/><polygon fill="#1275DB" stroke="#1275DB" points="710,680 675,615 505,685 "/><polygon fill="#0F75DA" stroke="#0F75DA" points="675,615 600,570 505,685 "/><polygon fill="#195FA6" stroke="#195FA6" points="528,1080 580,1020 510,1020 "/><polygon fill="#216EC3" stroke="#216EC3" points="580,1020 585,1010 510,1020 "/><polygon fill="#207CE0" stroke="#207CE0" points="725,780 710,680 560,845 "/><polygon fill="#3872B5" stroke="#3872B5" points="585,1010 510,890 495,980 "/><polygon fill="#2D77BF" stroke="#2D77BF" points="510,1020 585,1010 495,980 "/><polygon fill="#338FDF" stroke="#338FDF" points="560,845 710,680 505,685 "/><polygon fill="#2D76C2" stroke="#2D76C2" points="585,1010 625,910 510,890 "/><polygon fill="#6DA8E1" stroke="#6DA8E1" points="510,890 560,845 470,870 "/><polygon fill="#015AB1" stroke="#015AB1" points="690,425 670,270 520,240 "/><polygon fill="#013C77" stroke="#013C77" points="655,185 628,0 528,0 "/><polygon fill="#0065C0" stroke="#0065C0" points="600,570 655,530 435,480 "/><polygon fill="#196AB3" stroke="#196AB3" points="528,1080 510,1020 429,1080 "/><polygon fill="#015DB1" stroke="#015DB1" points="655,530 690,425 435,480 "/><polygon fill="#034A95" stroke="#034A95" points="655,185 528,0 520,240 "/><polygon fill="#025BAE" stroke="#025BAE" points="600,570 435,480 420,525 "/><polygon fill="#0357A8" stroke="#0357A8" points="410,510 435,480 410,440 "/><polygon fill="#043D7B" stroke="#043D7B" points="435,480 520,240 410,440 "/><polygon fill="#015BAB" stroke="#015BAB" points="420,525 435,480 410,510 "/><polygon fill="#8DCAE6" stroke="#8DCAE6" points="470,870 505,685 415,715 "/><polygon fill="#3881BF" stroke="#3881BF" points="510,1020 495,980 420,1075 "/><polygon fill="#19537F" stroke="#19537F" points="429,1080 510,1020 420,1075 "/><polygon fill="#0D60AB" stroke="#0D60AB" points="505,685 600,570 420,525 "/><polygon fill="#035EB6" stroke="#035EB6" points="690,425 520,240 435,480 "/><polygon fill="#5B91C0" stroke="#5B91C0" points="495,980 510,890 470,870 "/><polygon fill="#75B6E3" stroke="#75B6E3" points="560,845 505,685 470,870 "/><polygon fill="#C3E8EA" stroke="#C3E8EA" points="470,870 415,715 355,820 "/><polygon fill="#3E8BD2" stroke="#3E8BD2" points="505,685 420,525 415,715 "/><polygon fill="#02366E" stroke="#02366E" points="520,240 528,0 429,0 "/><polygon fill="#05519C" stroke="#05519C" points="410,510 410,440 325,460 "/><polygon fill="#82ADCE" stroke="#82ADCE" points="495,980 470,870 310,935 "/><polygon fill="#D2EEF0" stroke="#D2EEF0" points="470,870 355,820 310,935 "/><polygon fill="#D0DED8" stroke="#D0DED8" points="355,820 325,830 310,935 "/><polygon fill="#3C5D73" stroke="#3C5D73" points="420,1075 495,980 310,935 "/><polygon fill="#4C7791" stroke="#4C7791" points="329,1080 420,1075 310,935 "/><polygon fill="#0D3152" stroke="#0D3152" points="429,1080 420,1075 329,1080 "/><polygon fill="#025AAB" stroke="#025AAB" points="420,525 410,510 270,530 "/><polygon fill="#03529C" stroke="#03529C" points="410,510 325,460 270,530 "/><polygon fill="#7EA7B0" stroke="#7EA7B0" points="329,1080 310,935 245,985 "/><polygon fill="#13609D" stroke="#13609D" points="415,715 420,525 270,530 "/><polygon fill="#3A6575" stroke="#3A6575" points="329,1080 245,985 230,1080 "/><polygon fill="#00366D" stroke="#00366D" points="520,240 429,0 329,0 "/><polygon fill="#B6C3BA" stroke="#B6C3BA" points="310,935 325,830 210,875 "/><polygon fill="#A3C5BE" stroke="#A3C5BE" points="245,985 310,935 200,920 "/><polygon fill="#8BA297" stroke="#8BA297" points="310,935 210,875 200,920 "/><polygon fill="#DCEDEE" stroke="#DCEDEE" points="355,820 415,715 325,830 "/><polygon fill="#75A7B9" stroke="#75A7B9" points="230,1080 245,985 185,985 "/><polygon fill="#8BB6B3" stroke="#8BB6B3" points="245,985 200,920 185,985 "/><polygon fill="#94C3C0" stroke="#94C3C0" points="185,985 200,920 155,920 "/><polygon fill="#84A49D" stroke="#84A49D" points="200,920 210,875 155,920 "/><polygon fill="#3E585E" stroke="#3E585E" points="230,1080 185,985 160,1005 "/><polygon fill="#3A5D6C" stroke="#3A5D6C" points="230,1080 160,1005 135,1070 "/><polygon fill="#456C82" stroke="#456C82" points="230,1080 135,1070 130,1080 "/><polygon fill="#82B5BF" stroke="#82B5BF" points="160,1005 185,985 155,920 "/><polygon fill="#002E63" stroke="#002E63" points="325,460 329,0 230,0 "/><polygon fill="#89C0D5" stroke="#89C0D5" points="325,830 415,715 270,530 "/><polygon fill="#014187" stroke="#014187" points="410,440 520,240 325,460 "/><polygon fill="#023E83" stroke="#023E83" points="520,240 329,0 325,460 "/><polygon fill="#151B22" stroke="#151B22" points="130,1080 135,1070 31,1080 "/><polygon fill="#9BB7AF" stroke="#9BB7AF" points="325,830 270,530 210,875 "/><polygon fill="#5C8E9E" stroke="#5C8E9E" points="160,1005 155,920 20,950 "/><polygon fill="#1A2629" stroke="#1A2629" points="31,1080 135,1070 0,981 "/><polygon fill="#345F6F" stroke="#345F6F" points="160,1005 20,950 0,981 "/><polygon fill="#49727F" stroke="#49727F" points="135,1070 160,1005 0,981 "/><polygon fill="#132834" stroke="#132834" points="20,950 155,920 0,882 "/><polygon fill="#0F2B40" stroke="#0F2B40" points="0,981 20,950 0,882 "/><polygon fill="#244255" stroke="#244255" points="0,882 155,920 0,782 "/><polygon fill="#85B3B9" stroke="#85B3B9" points="155,920 210,875 0,782 "/><polygon fill="#426981" stroke="#426981" points="0,782 210,875 0,683 "/><polygon fill="#5E889B" stroke="#5E889B" points="210,875 270,530 0,683 "/><polygon fill="#000F1B" stroke="#000F1B" points="130,0 31,0 0,86 "/><polygon fill="#030F22" stroke="#030F22" points="130,0 0,86 0,185 "/><polygon fill="#01182F" stroke="#01182F" points="230,0 130,0 0,185 "/><polygon fill="#013168" stroke="#013168" points="0,484 270,530 0,384 "/><polygon fill="#044188" stroke="#044188" points="270,530 325,460 0,384 "/><polygon fill="#001833" stroke="#001833" points="230,0 0,185 0,285 "/><polygon fill="#042652" stroke="#042652" points="325,460 230,0 0,285 "/><polygon fill="#052D62" stroke="#052D62" points="0,384 325,460 0,285 "/><polygon fill="#395558" stroke="#395558" points="31,1080 0,981 0,1080 "/><polygon fill="#000511" stroke="#000511" points="0,86 31,0 0,0 "/><polygon fill="#013973" stroke="#013973" points="270,530 0,484 0,583 "/><polygon fill="#0E4577" stroke="#0E4577" points="0,683 270,530 0,583 "/></svg>